<?xml version="1.0" encoding="UTF-8" standalone="no" ?>
<!DOCTYPE svg PUBLIC "-//W3C//DTD SVG 1.1//EN" "http://www.w3.org/Graphics/SVG/1.1/DTD/svg11.dtd">
<svg xmlns="http://www.w3.org/2000/svg" xmlns:xlink="http://www.w3.org/1999/xlink" version="1.1" width="1080" height="1080" viewBox="0 0 1080 1080" xml:space="preserve">
<desc>Created with Fabric.js 5.2.4</desc>
<defs>
</defs>
<g transform="matrix(1 0 0 1 540 540)" id="834942dd-c310-4914-8de4-d022477a3de7"  >
<rect style="stroke: none; stroke-width: 1; stroke-dasharray: none; stroke-linecap: butt; stroke-dashoffset: 0; stroke-linejoin: miter; stroke-miterlimit: 4; fill: rgb(255,255,255); fill-rule: nonzero; opacity: 1; visibility: hidden;" vector-effect="non-scaling-stroke"  x="-540" y="-540" rx="0" ry="0" width="1080" height="1080" />
</g>
<g transform="matrix(1 0 0 1 540 540)" id="ca61d880-c3cb-4cd4-86e6-dafddd005220"  >
</g>
<g transform="matrix(2.43 0 0 2.43 265.73 810.05)"  >
<g style="" vector-effect="non-scaling-stroke"   >
		<g transform="matrix(1 0 0 1 65.67 -214.46)"  >
<path style="stroke: none; stroke-width: 1; stroke-dasharray: none; stroke-linecap: butt; stroke-dashoffset: 0; stroke-linejoin: miter; stroke-miterlimit: 4; fill: rgb(216,206,204); fill-rule: nonzero; opacity: 1;" vector-effect="non-scaling-stroke"  transform=" translate(-321.67, -41.53)" d="M 325.45 83.07 C 326.2 83.07 329.98 83.07 336.79 83.07 C 336.79 36.71 336.79 10.96 336.79 5.81 C 336.79 0.42 330.13 -2.04 326.59 2.02 C 282.05 53.16 325.68 66.86 325.45 83.07 Z" stroke-linecap="round" />
</g>
		<g transform="matrix(1 0 0 1 65.67 -214.46)"  >
<path style="stroke: rgb(0,0,0); stroke-opacity: 0; stroke-width: 1; stroke-dasharray: none; stroke-linecap: butt; stroke-dashoffset: 0; stroke-linejoin: miter; stroke-miterlimit: 4; fill: rgb(0,0,0); fill-opacity: 0; fill-rule: nonzero; opacity: 1;" vector-effect="non-scaling-stroke"  transform=" translate(-321.67, -41.53)" d="M 325.45 83.07 C 326.2 83.07 329.98 83.07 336.79 83.07 C 336.79 36.71 336.79 10.96 336.79 5.81 C 336.79 0.42 330.13 -2.04 326.59 2.02 C 282.05 53.16 325.68 66.86 325.45 83.07 Z" stroke-linecap="round" />
</g>
		<g transform="matrix(1 0 0 1 172.93 -214.46)"  >
<path style="stroke: none; stroke-width: 1; stroke-dasharray: none; stroke-linecap: butt; stroke-dashoffset: 0; stroke-linejoin: miter; stroke-miterlimit: 4; fill: rgb(216,206,204); fill-rule: nonzero; opacity: 1;" vector-effect="non-scaling-stroke"  transform=" translate(-428.93, -41.53)" d="M 413.78 5.81 C 413.78 10.96 413.78 36.71 413.78 83.07 C 420.59 83.07 424.37 83.07 425.12 83.07 C 425.12 83.07 468.52 53.16 423.98 2.02 C 420.44 -2.04 413.78 0.42 413.78 5.81 Z" stroke-linecap="round" />
</g>
		<g transform="matrix(1 0 0 1 172.93 -214.46)"  >
<path style="stroke: rgb(0,0,0); stroke-opacity: 0; stroke-width: 1; stroke-dasharray: none; stroke-linecap: butt; stroke-dashoffset: 0; stroke-linejoin: miter; stroke-miterlimit: 4; fill: rgb(0,0,0); fill-opacity: 0; fill-rule: nonzero; opacity: 1;" vector-effect="non-scaling-stroke"  transform=" translate(-428.93, -41.53)" d="M 413.78 5.81 C 413.78 10.96 413.78 36.71 413.78 83.07 C 420.59 83.07 424.37 83.07 425.12 83.07 C 425.12 83.07 468.52 53.16 423.98 2.02 C 420.44 -2.04 413.78 0.42 413.78 5.81 Z" stroke-linecap="round" />
</g>
		<g transform="matrix(1 0 0 1 26.76 21.32)"  >
<path style="stroke: none; stroke-width: 1; stroke-dasharray: none; stroke-linecap: butt; stroke-dashoffset: 0; stroke-linejoin: miter; stroke-miterlimit: 4; fill: rgb(235,224,218); fill-rule: nonzero; opacity: 1;" vector-effect="non-scaling-stroke"  transform=" translate(-282.76, -277.32)" d="M 426.21 365.84 C 426.21 394.08 411.31 423.54 384.04 427.02 C 384.04 434.49 384.04 494.23 384.04 501.7 C 384.04 507.39 379.43 512 373.74 512 C 372.3 512 360.79 512 359.35 512 C 353.66 512 349.04 507.39 349.04 501.7 C 349.04 496.75 349.04 472.01 349.04 427.48 L 174.31 427.48 C 174.31 472.01 174.31 496.75 174.31 501.7 C 174.31 507.39 169.69 512 164 512 C 162.57 512 151.06 512 149.62 512 C 143.94 512 139.32 507.39 139.32 501.7 C 139.32 488.94 139.32 425.12 139.32 310.26 C 221.57 310.26 267.26 310.26 276.4 310.26 C 284.42 310.26 291.97 308.29 298.62 304.8 C 313.91 296.79 324.33 280.76 324.33 262.28 C 324.33 245.5 324.33 111.2 324.33 94.42 C 324.33 66.48 346.48 43.11 374.41 42.65 C 402.95 42.18 426.21 65.15 426.21 93.57 C 426.21 148.02 426.21 338.61 426.21 365.84 Z" stroke-linecap="round" />
</g>
		<g transform="matrix(1 0 0 1 26.76 21.32)"  >
<path style="stroke: rgb(0,0,0); stroke-opacity: 0; stroke-width: 1; stroke-dasharray: none; stroke-linecap: butt; stroke-dashoffset: 0; stroke-linejoin: miter; stroke-miterlimit: 4; fill: rgb(0,0,0); fill-opacity: 0; fill-rule: nonzero; opacity: 1;" vector-effect="non-scaling-stroke"  transform=" translate(-282.76, -277.32)" d="M 426.21 365.84 C 426.21 394.08 411.31 423.54 384.04 427.02 C 384.04 434.49 384.04 494.23 384.04 501.7 C 384.04 507.39 379.43 512 373.74 512 C 372.3 512 360.79 512 359.35 512 C 353.66 512 349.04 507.39 349.04 501.7 C 349.04 496.75 349.04 472.01 349.04 427.48 L 174.31 427.48 C 174.31 472.01 174.31 496.75 174.31 501.7 C 174.31 507.39 169.69 512 164 512 C 162.57 512 151.06 512 149.62 512 C 143.94 512 139.32 507.39 139.32 501.7 C 139.32 488.94 139.32 425.12 139.32 310.26 C 221.57 310.26 267.26 310.26 276.4 310.26 C 284.42 310.26 291.97 308.29 298.62 304.8 C 313.91 296.79 324.33 280.76 324.33 262.28 C 324.33 245.5 324.33 111.2 324.33 94.42 C 324.33 66.48 346.48 43.11 374.41 42.65 C 402.95 42.18 426.21 65.15 426.21 93.57 C 426.21 148.02 426.21 338.61 426.21 365.84 Z" stroke-linecap="round" />
</g>
		<g transform="matrix(1 0 0 1 78.89 -79.55)"  >
<path style="stroke: none; stroke-width: 1; stroke-dasharray: none; stroke-linecap: butt; stroke-dashoffset: 0; stroke-linejoin: miter; stroke-miterlimit: 4; fill: rgb(216,206,204); fill-rule: nonzero; opacity: 1;" vector-effect="non-scaling-stroke"  transform=" translate(-334.89, -176.45)" d="M 360.39 94.42 C 360.39 111.2 360.39 245.5 360.39 262.28 C 360.39 280.76 349.96 296.78 334.68 304.8 C 328.03 308.29 320.48 310.26 312.46 310.26 C 308.85 310.26 280 310.26 276.4 310.26 C 284.42 310.26 291.98 308.29 298.62 304.8 C 313.91 296.79 324.33 280.76 324.33 262.28 C 324.33 245.5 324.33 111.2 324.33 94.42 C 324.33 66.48 346.48 43.11 374.41 42.65 C 381.11 42.54 387.5 43.72 393.39 45.96 C 374.03 53.39 360.39 72.49 360.39 94.42 Z" stroke-linecap="round" />
</g>
		<g transform="matrix(1 0 0 1 78.89 -79.55)"  >
<path style="stroke: rgb(0,0,0); stroke-opacity: 0; stroke-width: 1; stroke-dasharray: none; stroke-linecap: butt; stroke-dashoffset: 0; stroke-linejoin: miter; stroke-miterlimit: 4; fill: rgb(0,0,0); fill-opacity: 0; fill-rule: nonzero; opacity: 1;" vector-effect="non-scaling-stroke"  transform=" translate(-334.89, -176.45)" d="M 360.39 94.42 C 360.39 111.2 360.39 245.5 360.39 262.28 C 360.39 280.76 349.96 296.78 334.68 304.8 C 328.03 308.29 320.48 310.26 312.46 310.26 C 308.85 310.26 280 310.26 276.4 310.26 C 284.42 310.26 291.98 308.29 298.62 304.8 C 313.91 296.79 324.33 280.76 324.33 262.28 C 324.33 245.5 324.33 111.2 324.33 94.42 C 324.33 66.48 346.48 43.11 374.41 42.65 C 381.11 42.54 387.5 43.72 393.39 45.96 C 374.03 53.39 360.39 72.49 360.39 94.42 Z" stroke-linecap="round" />
</g>
		<g transform="matrix(1 0 0 1 -134.12 85.07)"  >
<path style="stroke: none; stroke-width: 1; stroke-dasharray: none; stroke-linecap: butt; stroke-dashoffset: 0; stroke-linejoin: miter; stroke-miterlimit: 4; fill: rgb(235,224,218); fill-rule: nonzero; opacity: 1;" vector-effect="non-scaling-stroke"  transform=" translate(-121.88, -341.07)" d="M 103.5 310.26 C 90.95 310.26 79.32 316.88 72.91 327.69 C 66.59 338.35 66.35 358.22 71.79 369.13 C 73.51 372.58 78.34 372.84 80.33 369.55 C 85.27 361.39 95.88 348.12 115.43 341.18 C 123.09 338.46 167.7 337.22 175.83 337.22 C 175.83 335.43 175.83 326.44 175.83 310.26 C 137.25 310.26 113.15 310.26 103.5 310.26 Z" stroke-linecap="round" />
</g>
		<g transform="matrix(1 0 0 1 -134.12 85.07)"  >
<path style="stroke: rgb(0,0,0); stroke-opacity: 0; stroke-width: 1; stroke-dasharray: none; stroke-linecap: butt; stroke-dashoffset: 0; stroke-linejoin: miter; stroke-miterlimit: 4; fill: rgb(0,0,0); fill-opacity: 0; fill-rule: nonzero; opacity: 1;" vector-effect="non-scaling-stroke"  transform=" translate(-121.88, -341.07)" d="M 103.5 310.26 C 90.95 310.26 79.32 316.88 72.91 327.69 C 66.59 338.35 66.35 358.22 71.79 369.13 C 73.51 372.58 78.34 372.84 80.33 369.55 C 85.27 361.39 95.88 348.12 115.43 341.18 C 123.09 338.46 167.7 337.22 175.83 337.22 C 175.83 335.43 175.83 326.44 175.83 310.26 C 137.25 310.26 113.15 310.26 103.5 310.26 Z" stroke-linecap="round" />
</g>
		<g transform="matrix(1 0 0 1 119.28 -130.38)"  >
<path style="stroke: none; stroke-width: 1; stroke-dasharray: none; stroke-linecap: butt; stroke-dashoffset: 0; stroke-linejoin: miter; stroke-miterlimit: 4; fill: rgb(118,109,120); fill-rule: nonzero; opacity: 1;" vector-effect="non-scaling-stroke"  transform=" translate(-375.28, -125.62)" d="M 387.61 123.33 C 390.19 118.86 386.96 113.27 381.79 113.27 C 380.49 113.27 370.08 113.27 368.78 113.27 C 363.61 113.27 360.38 118.86 362.96 123.33 C 363.61 124.46 368.82 133.49 369.47 134.61 C 372.05 139.09 378.51 139.09 381.1 134.61 C 382.4 132.36 386.96 124.46 387.61 123.33 Z" stroke-linecap="round" />
</g>
		<g transform="matrix(1 0 0 1 119.28 -130.38)"  >
<path style="stroke: rgb(0,0,0); stroke-opacity: 0; stroke-width: 1; stroke-dasharray: none; stroke-linecap: butt; stroke-dashoffset: 0; stroke-linejoin: miter; stroke-miterlimit: 4; fill: rgb(0,0,0); fill-opacity: 0; fill-rule: nonzero; opacity: 1;" vector-effect="non-scaling-stroke"  transform=" translate(-375.28, -125.62)" d="M 387.61 123.33 C 390.19 118.86 386.96 113.27 381.79 113.27 C 380.49 113.27 370.08 113.27 368.78 113.27 C 363.61 113.27 360.38 118.86 362.96 123.33 C 363.61 124.46 368.82 133.49 369.47 134.61 C 372.05 139.09 378.51 139.09 381.1 134.61 C 382.4 132.36 386.96 124.46 387.61 123.33 Z" stroke-linecap="round" />
</g>
		<g transform="matrix(1 0 0 1 119.3 -108.66)"  >
<path style="stroke: none; stroke-width: 1; stroke-dasharray: none; stroke-linecap: butt; stroke-dashoffset: 0; stroke-linejoin: miter; stroke-miterlimit: 4; fill: rgb(118,109,120); fill-rule: nonzero; opacity: 1;" vector-effect="non-scaling-stroke"  transform=" translate(-375.3, -147.33)" d="M 389.13 149.07 C 389.13 153.85 386.7 158.08 383.01 160.57 C 383.01 156.92 383.01 127.66 383.01 124.01 C 383.01 119.74 379.55 116.28 375.28 116.28 C 371.02 116.28 367.56 119.74 367.56 124.01 C 367.56 127.66 367.56 156.92 367.56 160.57 C 363.87 158.08 361.44 153.85 361.44 149.07 C 361.44 144.8 357.98 141.35 353.71 141.35 C 337.77 141.35 347.2 178.39 375.28 178.39 C 403.34 178.39 412.87 141.35 396.86 141.35 C 392.59 141.35 389.13 144.8 389.13 149.07 Z" stroke-linecap="round" />
</g>
		<g transform="matrix(1 0 0 1 119.3 -108.66)"  >
<path style="stroke: rgb(0,0,0); stroke-opacity: 0; stroke-width: 1; stroke-dasharray: none; stroke-linecap: butt; stroke-dashoffset: 0; stroke-linejoin: miter; stroke-miterlimit: 4; fill: rgb(0,0,0); fill-opacity: 0; fill-rule: nonzero; opacity: 1;" vector-effect="non-scaling-stroke"  transform=" translate(-375.3, -147.33)" d="M 389.13 149.07 C 389.13 153.85 386.7 158.08 383.01 160.57 C 383.01 156.92 383.01 127.66 383.01 124.01 C 383.01 119.74 379.55 116.28 375.28 116.28 C 371.02 116.28 367.56 119.74 367.56 124.01 C 367.56 127.66 367.56 156.92 367.56 160.57 C 363.87 158.08 361.44 153.85 361.44 149.07 C 361.44 144.8 357.98 141.35 353.71 141.35 C 337.77 141.35 347.2 178.39 375.28 178.39 C 403.34 178.39 412.87 141.35 396.86 141.35 C 392.59 141.35 389.13 144.8 389.13 149.07 Z" stroke-linecap="round" />
</g>
		<g transform="matrix(1 0 0 1 79.88 -159.16)"  >
<path style="stroke: none; stroke-width: 1; stroke-dasharray: none; stroke-linecap: butt; stroke-dashoffset: 0; stroke-linejoin: miter; stroke-miterlimit: 4; fill: rgb(118,109,120); fill-rule: nonzero; opacity: 1;" vector-effect="non-scaling-stroke"  transform=" translate(-335.88, -96.84)" d="M 324.33 104.56 C 320.07 104.56 316.61 101.1 316.61 96.84 C 316.61 92.57 320.07 89.11 324.33 89.11 C 326.64 89.11 345.12 89.11 347.43 89.11 C 351.7 89.11 355.16 92.57 355.16 96.84 C 355.16 101.1 351.7 104.56 347.43 104.56 C 342.81 104.56 326.64 104.56 324.33 104.56 Z" stroke-linecap="round" />
</g>
		<g transform="matrix(1 0 0 1 79.88 -159.16)"  >
<path style="stroke: rgb(0,0,0); stroke-opacity: 0; stroke-width: 1; stroke-dasharray: none; stroke-linecap: butt; stroke-dashoffset: 0; stroke-linejoin: miter; stroke-miterlimit: 4; fill: rgb(0,0,0); fill-opacity: 0; fill-rule: nonzero; opacity: 1;" vector-effect="non-scaling-stroke"  transform=" translate(-335.88, -96.84)" d="M 324.33 104.56 C 320.07 104.56 316.61 101.1 316.61 96.84 C 316.61 92.57 320.07 89.11 324.33 89.11 C 326.64 89.11 345.12 89.11 347.43 89.11 C 351.7 89.11 355.16 92.57 355.16 96.84 C 355.16 101.1 351.7 104.56 347.43 104.56 C 342.81 104.56 326.64 104.56 324.33 104.56 Z" stroke-linecap="round" />
</g>
		<g transform="matrix(1 0 0 1 158.66 -159.16)"  >
<path style="stroke: none; stroke-width: 1; stroke-dasharray: none; stroke-linecap: butt; stroke-dashoffset: 0; stroke-linejoin: miter; stroke-miterlimit: 4; fill: rgb(118,109,120); fill-rule: nonzero; opacity: 1;" vector-effect="non-scaling-stroke"  transform=" translate(-414.66, -96.84)" d="M 403.12 104.56 C 398.85 104.56 395.39 101.1 395.39 96.84 C 395.39 92.57 398.85 89.11 403.12 89.11 C 405.43 89.11 423.9 89.11 426.21 89.11 C 430.48 89.11 433.94 92.57 433.94 96.84 C 433.94 101.1 430.48 104.56 426.21 104.56 C 421.59 104.56 405.43 104.56 403.12 104.56 Z" stroke-linecap="round" />
</g>
		<g transform="matrix(1 0 0 1 158.66 -159.16)"  >
<path style="stroke: rgb(0,0,0); stroke-opacity: 0; stroke-width: 1; stroke-dasharray: none; stroke-linecap: butt; stroke-dashoffset: 0; stroke-linejoin: miter; stroke-miterlimit: 4; fill: rgb(0,0,0); fill-opacity: 0; fill-rule: nonzero; opacity: 1;" vector-effect="non-scaling-stroke"  transform=" translate(-414.66, -96.84)" d="M 403.12 104.56 C 398.85 104.56 395.39 101.1 395.39 96.84 C 395.39 92.57 398.85 89.11 403.12 89.11 C 405.43 89.11 423.9 89.11 426.21 89.11 C 430.48 89.11 433.94 92.57 433.94 96.84 C 433.94 101.1 430.48 104.56 426.21 104.56 C 421.59 104.56 405.43 104.56 403.12 104.56 Z" stroke-linecap="round" />
</g>
		<g transform="matrix(1 0 0 1 110.54 236.17)"  >
<path style="stroke: none; stroke-width: 1; stroke-dasharray: none; stroke-linecap: butt; stroke-dashoffset: 0; stroke-linejoin: miter; stroke-miterlimit: 4; fill: rgb(164,156,167); fill-rule: nonzero; opacity: 1;" vector-effect="non-scaling-stroke"  transform=" translate(-366.54, -492.17)" d="M 384.04 472.34 C 384.04 489.95 384.04 499.74 384.04 501.7 C 384.04 507.39 379.43 512 373.74 512 C 372.3 512 360.79 512 359.35 512 C 353.66 512 349.04 507.39 349.04 501.7 C 349.04 499.74 349.04 489.95 349.04 472.34 L 384.04 472.34 Z" stroke-linecap="round" />
</g>
		<g transform="matrix(1 0 0 1 110.54 236.17)"  >
<path style="stroke: rgb(0,0,0); stroke-opacity: 0; stroke-width: 1; stroke-dasharray: none; stroke-linecap: butt; stroke-dashoffset: 0; stroke-linejoin: miter; stroke-miterlimit: 4; fill: rgb(0,0,0); fill-opacity: 0; fill-rule: nonzero; opacity: 1;" vector-effect="non-scaling-stroke"  transform=" translate(-366.54, -492.17)" d="M 384.04 472.34 C 384.04 489.95 384.04 499.74 384.04 501.7 C 384.04 507.39 379.43 512 373.74 512 C 372.3 512 360.79 512 359.35 512 C 353.66 512 349.04 507.39 349.04 501.7 C 349.04 499.74 349.04 489.95 349.04 472.34 L 384.04 472.34 Z" stroke-linecap="round" />
</g>
		<g transform="matrix(1 0 0 1 -99.18 155.13)"  >
<path style="stroke: none; stroke-width: 1; stroke-dasharray: none; stroke-linecap: butt; stroke-dashoffset: 0; stroke-linejoin: miter; stroke-miterlimit: 4; fill: rgb(216,206,204); fill-rule: nonzero; opacity: 1;" vector-effect="non-scaling-stroke"  transform=" translate(-156.82, -411.13)" d="M 174.32 310.26 L 174.32 427.48 L 174.31 427.48 C 174.31 472.01 174.31 496.75 174.31 501.7 C 174.31 507.39 169.69 512 164.01 512 C 162.57 512 151.06 512 149.62 512 C 143.94 512 139.32 507.39 139.32 501.7 C 139.32 488.94 139.32 425.12 139.32 310.26 L 174.32 310.26 Z" stroke-linecap="round" />
</g>
		<g transform="matrix(1 0 0 1 -99.18 155.13)"  >
<path style="stroke: rgb(0,0,0); stroke-opacity: 0; stroke-width: 1; stroke-dasharray: none; stroke-linecap: butt; stroke-dashoffset: 0; stroke-linejoin: miter; stroke-miterlimit: 4; fill: rgb(0,0,0); fill-opacity: 0; fill-rule: nonzero; opacity: 1;" vector-effect="non-scaling-stroke"  transform=" translate(-156.82, -411.13)" d="M 174.32 310.26 L 174.32 427.48 L 174.31 427.48 C 174.31 472.01 174.31 496.75 174.31 501.7 C 174.31 507.39 169.69 512 164.01 512 C 162.57 512 151.06 512 149.62 512 C 143.94 512 139.32 507.39 139.32 501.7 C 139.32 488.94 139.32 425.12 139.32 310.26 L 174.32 310.26 Z" stroke-linecap="round" />
</g>
		<g transform="matrix(1 0 0 1 -99.19 236.17)"  >
<path style="stroke: none; stroke-width: 1; stroke-dasharray: none; stroke-linecap: butt; stroke-dashoffset: 0; stroke-linejoin: miter; stroke-miterlimit: 4; fill: rgb(164,156,167); fill-rule: nonzero; opacity: 1;" vector-effect="non-scaling-stroke"  transform=" translate(-156.81, -492.17)" d="M 139.32 472.34 L 174.31 472.34 C 174.31 489.95 174.31 499.74 174.31 501.7 C 174.31 507.39 169.69 512 164.01 512 C 162.57 512 151.06 512 149.62 512 C 143.94 512 139.32 507.39 139.32 501.7 C 139.32 497.78 139.32 488 139.32 472.34 Z" stroke-linecap="round" />
</g>
		<g transform="matrix(1 0 0 1 -99.19 236.17)"  >
<path style="stroke: rgb(0,0,0); stroke-opacity: 0; stroke-width: 1; stroke-dasharray: none; stroke-linecap: butt; stroke-dashoffset: 0; stroke-linejoin: miter; stroke-miterlimit: 4; fill: rgb(0,0,0); fill-opacity: 0; fill-rule: nonzero; opacity: 1;" vector-effect="non-scaling-stroke"  transform=" translate(-156.81, -492.17)" d="M 139.32 472.34 L 174.31 472.34 C 174.31 489.95 174.31 499.74 174.31 501.7 C 174.31 507.39 169.69 512 164.01 512 C 162.57 512 151.06 512 149.62 512 C 143.94 512 139.32 507.39 139.32 501.7 C 139.32 497.78 139.32 488 139.32 472.34 Z" stroke-linecap="round" />
</g>
</g>
</g>
</svg>